<svg width="20" height="20" viewBox="0 0 20 20" fill="none" xmlns="http://www.w3.org/2000/svg">
<g clip-path="url(#clip0_396_160)">
<path fill-rule="evenodd" clip-rule="evenodd" d="M15.577 6.09009C15.7411 6.25433 15.8333 6.47706 15.8333 6.70929C15.8333 6.94153 15.7411 7.16425 15.577 7.32849L9.01498 13.893C8.92826 13.9798 8.8253 14.0486 8.71199 14.0956C8.59868 14.1425 8.47723 14.1667 8.35457 14.1667C8.23192 14.1667 8.11047 14.1425 7.99716 14.0956C7.88385 14.0486 7.78089 13.9798 7.69417 13.893L4.4339 10.6321C4.35028 10.5513 4.28359 10.4546 4.2377 10.3478C4.19182 10.2409 4.16767 10.126 4.16666 10.0097C4.16565 9.89342 4.1878 9.77809 4.23182 9.67046C4.27584 9.56283 4.34085 9.46504 4.42305 9.38281C4.50525 9.30057 4.603 9.23554 4.71059 9.19151C4.81818 9.14747 4.93346 9.12531 5.04971 9.12632C5.16596 9.12733 5.28084 9.15149 5.38765 9.19739C5.49446 9.24329 5.59106 9.31001 5.67182 9.39366L8.35428 12.0772L14.3385 6.09009C14.4198 6.00871 14.5163 5.94414 14.6226 5.9001C14.7288 5.85605 14.8427 5.83337 14.9577 5.83337C15.0727 5.83337 15.1866 5.85605 15.2929 5.9001C15.3991 5.94414 15.4957 6.00871 15.577 6.09009Z" fill="white"/>
</g>
<defs>
<clipPath id="clip0_396_160">
<rect width="20" height="20" fill="white"/>
</clipPath>
</defs>
</svg>
