<svg width="42" height="44" viewBox="0 0 42 44" fill="none" xmlns="http://www.w3.org/2000/svg">
<g filter="url(#filter0_d_462_1388)">
<path fill-rule="evenodd" clip-rule="evenodd" d="M12.3379 8.08794C14.6353 5.79062 17.7511 4.5 21 4.5C24.2489 4.5 27.3647 5.79062 29.6621 8.08794C31.9594 10.3853 33.25 13.5011 33.25 16.75C33.25 25.9375 21 39.5 21 39.5C21 39.5 8.75 25.9375 8.75 16.75C8.75 13.5011 10.0406 10.3853 12.3379 8.08794Z" fill="#FF2E61"/>
<path d="M16 18.8C16 18.8 16.625 18.2 18.5 18.2C20.375 18.2 21.625 19.4 23.5 19.4C25.375 19.4 26 18.8 26 18.8V11.6C26 11.6 25.375 12.2 23.5 12.2C21.625 12.2 20.375 11 18.5 11C16.625 11 16 11.6 16 11.6V18.8ZM16 18.8V23" stroke="white" stroke-width="1.5" stroke-linecap="round" stroke-linejoin="round"/>
</g>
<defs>
<filter id="filter0_d_462_1388" x="-4" y="-3" width="50" height="50" filterUnits="userSpaceOnUse" color-interpolation-filters="sRGB">
<feFlood flood-opacity="0" result="BackgroundImageFix"/>
<feColorMatrix in="SourceAlpha" type="matrix" values="0 0 0 0 0 0 0 0 0 0 0 0 0 0 0 0 0 0 127 0" result="hardAlpha"/>
<feOffset/>
<feGaussianBlur stdDeviation="2"/>
<feComposite in2="hardAlpha" operator="out"/>
<feColorMatrix type="matrix" values="0 0 0 0 0 0 0 0 0 0 0 0 0 0 0 0 0 0 0.25 0"/>
<feBlend mode="normal" in2="BackgroundImageFix" result="effect1_dropShadow_462_1388"/>
<feBlend mode="normal" in="SourceGraphic" in2="effect1_dropShadow_462_1388" result="shape"/>
</filter>
</defs>
</svg>
