<svg width="335" height="44" viewBox="0 0 335 44" fill="none" xmlns="http://www.w3.org/2000/svg">
<rect width="335" height="44" rx="16" fill="#F7F7F7"/>
<path d="M30.2716 27.1684L27.3313 24.2281C28.0391 23.2857 28.4213 22.1386 28.42 20.96C28.42 17.9494 25.9706 15.5 22.96 15.5C19.9494 15.5 17.5 17.9494 17.5 20.96C17.5 23.9706 19.9494 26.42 22.96 26.42C24.1386 26.4213 25.2857 26.0391 26.2281 25.3313L29.1684 28.2716C29.3173 28.4046 29.5114 28.4756 29.711 28.47C29.9105 28.4645 30.1004 28.3827 30.2415 28.2415C30.3827 28.1004 30.4645 27.9105 30.47 27.711C30.4756 27.5114 30.4046 27.3173 30.2716 27.1684ZM19.06 20.96C19.06 20.1887 19.2887 19.4346 19.7173 18.7933C20.1458 18.1519 20.7549 17.6521 21.4675 17.3569C22.1802 17.0617 22.9643 16.9845 23.7209 17.1349C24.4774 17.2854 25.1723 17.6569 25.7177 18.2023C26.2631 18.7477 26.6346 19.4426 26.7851 20.1991C26.9355 20.9557 26.8583 21.7398 26.5631 22.4525C26.2679 23.1651 25.7681 23.7742 25.1267 24.2027C24.4854 24.6313 23.7313 24.86 22.96 24.86C21.926 24.8588 20.9348 24.4475 20.2037 23.7163C19.4725 22.9852 19.0612 21.994 19.06 20.96Z" fill="#4F4F4F"/>
<path d="M46.8027 22.0293H43.043V25.1738H48.1152V26.0762H36.9863V25.1738H41.9902V22.0293H38.4082V16.4512H46.6797V17.3262H39.4883V21.1543H46.8027V22.0293ZM52.6285 18.1055C52.6285 18.6022 52.7561 19.0807 53.0113 19.541C53.2665 19.9967 53.622 20.4001 54.0777 20.751C54.5335 21.0973 55.0576 21.3594 55.65 21.5371L55.1305 22.3848C54.4332 22.166 53.8248 21.8356 53.3053 21.3936C52.7857 20.9469 52.3915 20.4229 52.1227 19.8213C51.8583 20.4775 51.4573 21.0472 50.9195 21.5303C50.3863 22.0133 49.762 22.3757 49.0465 22.6172L48.4996 21.7695C49.1012 21.5827 49.6344 21.307 50.0992 20.9424C50.5641 20.5732 50.9264 20.1449 51.1861 19.6572C51.4459 19.165 51.5758 18.6478 51.5758 18.1055V17.832H48.8277V16.9707H51.5758V15.4121H52.6559V16.9707H55.3766V17.832H52.6285V18.1055ZM50.0309 23.5059H57.9879V27.6348H56.9215V24.3945H50.0309V23.5059ZM56.9215 15.4531H57.9879V18.707H59.8199V19.623H57.9879V22.877H56.9215V15.4531ZM64.3332 19.1855C64.3332 19.8555 64.4813 20.5231 64.7775 21.1885C65.0783 21.8538 65.4794 22.4463 65.9807 22.9658C66.4865 23.4808 67.0357 23.8659 67.6281 24.1211L67.0266 24.9688C66.3111 24.6452 65.6662 24.153 65.092 23.4922C64.5223 22.8314 64.0962 22.0817 63.8137 21.2432C63.5311 22.1318 63.1027 22.9385 62.5285 23.6631C61.9589 24.3831 61.3254 24.9186 60.6281 25.2695L59.9855 24.4219C60.5643 24.1439 61.1021 23.7246 61.5988 23.1641C62.1001 22.6035 62.5012 21.9723 62.802 21.2705C63.1027 20.5641 63.2531 19.8691 63.2531 19.1855V17.5996H60.382V16.7109H67.2316V17.5996H64.3332V19.1855ZM68.927 15.4531H70.007V27.6074H68.927V15.4531ZM84.434 21.9746H83.3676V15.4531H84.434V21.9746ZM74.6859 18.8438C74.6859 18.2969 74.8204 17.8115 75.0893 17.3877C75.3627 16.9639 75.7409 16.6357 76.224 16.4033C76.7117 16.1663 77.2608 16.0501 77.8715 16.0547C78.4822 16.0501 79.029 16.1663 79.5121 16.4033C79.9952 16.6357 80.3734 16.9639 80.6469 17.3877C80.9203 17.8115 81.057 18.2969 81.057 18.8438C81.057 19.3861 80.9203 19.8691 80.6469 20.293C80.3734 20.7168 79.9952 21.0472 79.5121 21.2842C79.029 21.5166 78.4822 21.6328 77.8715 21.6328C77.2608 21.6328 76.7117 21.5166 76.224 21.2842C75.7409 21.0472 75.3627 20.7168 75.0893 20.293C74.8204 19.8691 74.6859 19.3861 74.6859 18.8438ZM75.7387 18.8438C75.7341 19.2083 75.823 19.5342 76.0053 19.8213C76.1876 20.1084 76.4405 20.334 76.7641 20.498C77.0876 20.6621 77.4568 20.7441 77.8715 20.7441C78.2816 20.7441 78.6485 20.6621 78.9721 20.498C79.2956 20.334 79.5486 20.1084 79.7309 19.8213C79.9131 19.5342 80.0043 19.2083 80.0043 18.8438C80.0043 18.4792 79.9131 18.1533 79.7309 17.8662C79.5486 17.5791 79.2956 17.3558 78.9721 17.1963C78.6485 17.0368 78.2816 16.957 77.8715 16.957C77.4568 16.957 77.0876 17.0368 76.7641 17.1963C76.4405 17.3558 76.1876 17.5791 76.0053 17.8662C75.823 18.1533 75.7341 18.4792 75.7387 18.8438ZM76.559 22.5898H77.6254V24.0664H83.3676V22.5898H84.434V27.4434H76.559V22.5898ZM83.3676 26.5684V24.9277H77.6254V26.5684H83.3676ZM91.668 19.6094H87.4844V21.4961H87.8672C88.929 21.4961 89.7835 21.4756 90.4307 21.4346C91.0778 21.3936 91.7272 21.3138 92.3789 21.1953L92.4883 22.084C91.7637 22.2025 91.0391 22.2799 90.3145 22.3164C89.5944 22.3529 88.5827 22.3711 87.2793 22.3711H86.418V18.7891H90.6016V17.0664H86.3906V16.2051H91.668V19.6094ZM87.7852 23.5879H95.9746V27.6348H94.8945V24.4629H87.7852V23.5879ZM92.4746 19.7871H94.8945V18.1465H92.4746V17.2715H94.8945V15.4668H95.9746V22.9316H94.8945V20.6758H92.4746V19.7871Z" fill="#4F4F4F"/>
</svg>
