<svg width="56" height="56" viewBox="0 0 56 56" fill="none" xmlns="http://www.w3.org/2000/svg">
<g filter="url(#filter0_d_422_2689)">
<rect x="4" y="4" width="48" height="48" rx="24" fill="#FAFAFA"/>
<rect x="4.5" y="4.5" width="47" height="47" rx="23.5" stroke="#D6D6D6"/>
<g clip-path="url(#clip0_422_2689)">
<path d="M32.719 35.7519L32.0785 30.6279C31.8908 29.1266 30.6146 28 29.1017 28H28H26.8983C25.3854 28 24.1092 29.1266 23.9215 30.6279L23.281 35.7519C23.1318 36.9456 24.0626 38 25.2656 38H28H30.7344C31.9374 38 32.8682 36.9456 32.719 35.7519Z" stroke="#1C1C1C" stroke-width="2" stroke-linecap="round" stroke-linejoin="round"/>
<path d="M28 24C29.6569 24 31 22.6569 31 21C31 19.3431 29.6569 18 28 18C26.3431 18 25 19.3431 25 21C25 22.6569 26.3431 24 28 24Z" stroke="#1C1C1C" stroke-width="2"/>
<path d="M20 27C21.1046 27 22 26.1046 22 25C22 23.8954 21.1046 23 20 23C18.8954 23 18 23.8954 18 25C18 26.1046 18.8954 27 20 27Z" stroke="#1C1C1C" stroke-width="2"/>
<path d="M36 27C37.1046 27 38 26.1046 38 25C38 23.8954 37.1046 23 36 23C34.8954 23 34 23.8954 34 25C34 26.1046 34.8954 27 36 27Z" stroke="#1C1C1C" stroke-width="2"/>
<path d="M20 30H19.6943C18.7166 30 17.8822 30.7068 17.7215 31.6712L17.3881 33.6712C17.185 34.8903 18.125 36 19.3609 36H23" stroke="#1C1C1C" stroke-width="2" stroke-linecap="round" stroke-linejoin="round"/>
<path d="M36 30H36.3057C37.2834 30 38.1178 30.7068 38.2785 31.6712L38.6119 33.6712C38.815 34.8903 37.8751 36 36.6392 36C35.4775 36 34.0952 36 33 36" stroke="#1C1C1C" stroke-width="2" stroke-linecap="round" stroke-linejoin="round"/>
<path d="M19 38L39 18" stroke="#FAFAFA" stroke-width="3" stroke-linecap="round"/>
<path d="M20 39L39 20" stroke="#1C1C1C" stroke-width="2" stroke-linecap="round"/>
</g>
</g>
<defs>
<filter id="filter0_d_422_2689" x="0" y="0" width="56" height="56" filterUnits="userSpaceOnUse" color-interpolation-filters="sRGB">
<feFlood flood-opacity="0" result="BackgroundImageFix"/>
<feColorMatrix in="SourceAlpha" type="matrix" values="0 0 0 0 0 0 0 0 0 0 0 0 0 0 0 0 0 0 127 0" result="hardAlpha"/>
<feOffset/>
<feGaussianBlur stdDeviation="2"/>
<feComposite in2="hardAlpha" operator="out"/>
<feColorMatrix type="matrix" values="0 0 0 0 0 0 0 0 0 0 0 0 0 0 0 0 0 0 0.25 0"/>
<feBlend mode="normal" in2="BackgroundImageFix" result="effect1_dropShadow_422_2689"/>
<feBlend mode="normal" in="SourceGraphic" in2="effect1_dropShadow_422_2689" result="shape"/>
</filter>
<clipPath id="clip0_422_2689">
<rect width="24" height="24" fill="white" transform="translate(16 16)"/>
</clipPath>
</defs>
</svg>
