<svg width="56" height="56" viewBox="0 0 56 56" fill="none" xmlns="http://www.w3.org/2000/svg">
<g filter="url(#filter0_d_421_2275)">
<rect x="4" y="4" width="48" height="48" rx="24" fill="#FAFAFA"/>
<rect x="4.5" y="4.5" width="47" height="47" rx="23.5" stroke="#D6D6D6"/>
<path fill-rule="evenodd" clip-rule="evenodd" d="M28.9302 14.3538C28.6739 14.1259 28.3429 14 28 14C27.6287 14 27.2725 14.1475 27.0099 14.4101C26.7474 14.6726 26.5998 15.0288 26.5998 15.4001V17.2412C24.2257 17.5508 22.0206 18.6364 20.3275 20.3292C18.6344 22.0219 17.5484 24.2268 17.2384 26.6007H15.3986L15.2348 26.6105C14.8804 26.6526 14.5555 26.8285 14.3265 27.1022C14.0974 27.3758 13.9815 27.7266 14.0024 28.0828C14.0233 28.4391 14.1795 28.7739 14.439 29.0188C14.6985 29.2638 15.0417 29.4005 15.3986 29.4009H17.2398C17.5494 31.7748 18.6351 33.9799 20.328 35.6729C22.0208 37.3658 24.2258 38.4518 26.5998 38.7618V40.6015L26.6096 40.7653C26.6518 41.1196 26.8277 41.4445 27.1013 41.6736C27.375 41.9026 27.7258 42.0185 28.0821 41.9976C28.4383 41.9767 28.7731 41.8205 29.0181 41.561C29.2631 41.3016 29.3998 40.9583 29.4002 40.6015V38.7618C31.7745 38.4521 33.9798 37.3663 35.6729 35.6732C37.366 33.9802 38.4519 31.775 38.7616 29.4009H40.6014L40.7652 29.3911C41.1196 29.3489 41.4445 29.173 41.6735 28.8994C41.9026 28.6257 42.0185 28.275 41.9976 27.9187C41.9767 27.5625 41.8205 27.2277 41.561 26.9827C41.3015 26.7377 40.9583 26.6011 40.6014 26.6007L38.7616 26.6021C38.4522 24.2277 37.3664 22.0221 35.6733 20.3289C33.9802 18.6356 31.7747 17.5495 29.4002 17.2398V15.4001L29.3904 15.2363C29.3502 14.8957 29.1865 14.5817 28.9302 14.3538ZM22.3072 22.3083C23.817 20.7985 25.8648 19.9503 28 19.9503C30.1352 19.9503 32.183 20.7985 33.6928 22.3083C35.2027 23.818 36.0509 25.8657 36.0509 28.0008C36.0509 30.1359 35.2027 32.1835 33.6928 33.6933C32.183 35.2031 30.1352 36.0512 28 36.0512C25.8648 36.0512 23.817 35.2031 22.3072 33.6933C20.7973 32.1835 19.9491 30.1359 19.9491 28.0008C19.9491 25.8657 20.7973 23.818 22.3072 22.3083Z" fill="#E75353"/>
<circle cx="28" cy="28" r="3" fill="#E75353"/>
</g>
<defs>
<filter id="filter0_d_421_2275" x="0" y="0" width="56" height="56" filterUnits="userSpaceOnUse" color-interpolation-filters="sRGB">
<feFlood flood-opacity="0" result="BackgroundImageFix"/>
<feColorMatrix in="SourceAlpha" type="matrix" values="0 0 0 0 0 0 0 0 0 0 0 0 0 0 0 0 0 0 127 0" result="hardAlpha"/>
<feOffset/>
<feGaussianBlur stdDeviation="2"/>
<feComposite in2="hardAlpha" operator="out"/>
<feColorMatrix type="matrix" values="0 0 0 0 0 0 0 0 0 0 0 0 0 0 0 0 0 0 0.25 0"/>
<feBlend mode="normal" in2="BackgroundImageFix" result="effect1_dropShadow_421_2275"/>
<feBlend mode="normal" in="SourceGraphic" in2="effect1_dropShadow_421_2275" result="shape"/>
</filter>
</defs>
</svg>
