<svg width="164" height="44" viewBox="0 0 164 44" fill="none" xmlns="http://www.w3.org/2000/svg">
<rect width="164" height="44" rx="8" fill="#1C1C1C"/>
<g clip-path="url(#clip0_440_1207)">
<path fill-rule="evenodd" clip-rule="evenodd" d="M147.577 18.0901C147.741 18.2543 147.833 18.4771 147.833 18.7093C147.833 18.9415 147.741 19.1643 147.577 19.3285L141.015 25.893C140.928 25.9798 140.825 26.0486 140.712 26.0956C140.599 26.1425 140.477 26.1667 140.355 26.1667C140.232 26.1667 140.111 26.1425 139.997 26.0956C139.884 26.0486 139.781 25.9798 139.694 25.893L136.434 22.6321C136.35 22.5513 136.284 22.4546 136.238 22.3478C136.192 22.2409 136.168 22.126 136.167 22.0097C136.166 21.8934 136.188 21.7781 136.232 21.6705C136.276 21.5628 136.341 21.465 136.423 21.3828C136.505 21.3006 136.603 21.2355 136.711 21.1915C136.818 21.1475 136.933 21.1253 137.05 21.1263C137.166 21.1273 137.281 21.1515 137.388 21.1974C137.494 21.2433 137.591 21.31 137.672 21.3937L140.354 24.0772L146.338 18.0901C146.42 18.0087 146.516 17.9441 146.623 17.9001C146.729 17.856 146.843 17.8334 146.958 17.8334C147.073 17.8334 147.187 17.856 147.293 17.9001C147.399 17.9441 147.496 18.0087 147.577 18.0901Z" fill="white"/>
</g>
<defs>
<clipPath id="clip0_440_1207">
<rect width="20" height="20" fill="white" transform="translate(132 12)"/>
</clipPath>
</defs>
</svg>
