<svg width="24" height="24" viewBox="0 0 24 24" fill="none" xmlns="http://www.w3.org/2000/svg">
<g id="streamline:dices-entertainment-gaming-dices-solid" clip-path="url(#clip0_562_5837)">
<path id="Vector" fill-rule="evenodd" clip-rule="evenodd" d="M0.428467 2.14202C0.428467 1.68736 0.609079 1.25133 0.930569 0.929837C1.25206 0.608346 1.6881 0.427734 2.14275 0.427734H13.1776C13.4027 0.427734 13.6257 0.472076 13.8336 0.558227C14.0416 0.644378 14.2306 0.770651 14.3898 0.929837C14.549 1.08902 14.6753 1.278 14.7614 1.48599C14.8476 1.69398 14.8919 1.9169 14.8919 2.14202V6.96431H10.8222C9.7992 6.96431 8.81812 7.37068 8.09477 8.09404C7.37141 8.81739 6.96504 9.79847 6.96504 10.8214V14.8912H2.14275C1.6881 14.8912 1.25206 14.7106 0.930569 14.3891C0.609079 14.0676 0.428467 13.6315 0.428467 13.1769V2.14202ZM4.80161 6.42602H4.7399C3.7799 6.42602 3.00332 5.64945 3.00332 4.68945V4.66716C3.00332 4.21251 3.18394 3.77647 3.50543 3.45498C3.82692 3.13349 4.26295 2.95288 4.71761 2.95288H4.74161C4.96977 2.94905 5.19645 2.9902 5.40871 3.07398C5.62097 3.15776 5.81465 3.28252 5.97869 3.44115C6.14273 3.59978 6.27392 3.78917 6.36477 3.9985C6.45562 4.20783 6.50435 4.433 6.50818 4.66116C6.51201 4.88933 6.47086 5.11601 6.38708 5.32827C6.3033 5.54053 6.17854 5.7342 6.01991 5.89825C5.86128 6.06229 5.67189 6.19348 5.46256 6.28433C5.25323 6.37518 5.02806 6.42391 4.7999 6.42773L4.80161 6.42602ZM10.8222 9.10716C10.3675 9.10716 9.93149 9.28778 9.61 9.60927C9.28851 9.93076 9.1079 10.3668 9.1079 10.8214V21.8563C9.1079 22.311 9.28851 22.747 9.61 23.0685C9.93149 23.39 10.3675 23.5706 10.8222 23.5706H21.857C22.3117 23.5706 22.7477 23.39 23.0692 23.0685C23.3907 22.747 23.5713 22.311 23.5713 21.8563V10.8214C23.5713 10.3668 23.3907 9.93076 23.0692 9.60927C22.7477 9.28778 22.3117 9.10716 21.857 9.10716H10.8222ZM18.6548 15.3797C19.1094 15.3797 19.5454 15.1991 19.8669 14.8776C20.1884 14.5561 20.369 14.1201 20.369 13.6654C20.369 13.2108 20.1884 12.7748 19.8669 12.4533C19.5454 12.1318 19.1094 11.9512 18.6548 11.9512C18.2001 11.9512 17.7641 12.1318 17.4426 12.4533C17.1211 12.7748 16.9405 13.2108 16.9405 13.6654C16.9405 14.1201 17.1211 14.5561 17.4426 14.8776C17.7641 15.1991 18.2001 15.3797 18.6548 15.3797ZM15.7405 19.014C15.7405 19.4687 15.5599 19.9047 15.2384 20.2262C14.9169 20.5477 14.4808 20.7283 14.0262 20.7283C13.5715 20.7283 13.1355 20.5477 12.814 20.2262C12.4925 19.9047 12.3119 19.4687 12.3119 19.014C12.3119 18.5594 12.4925 18.1233 12.814 17.8018C13.1355 17.4803 13.5715 17.2997 14.0262 17.2997C14.4808 17.2997 14.9169 17.4803 15.2384 17.8018C15.5599 18.1233 15.7405 18.5594 15.7405 19.014Z" fill="#3885F8"/>
</g>
<defs>
<clipPath id="clip0_562_5837">
<rect width="24" height="24" fill="white"/>
</clipPath>
</defs>
</svg>
